#!OML:ASF H:\Punching\Project 1\Capture day 1\Session 1\female.ASF
:FULLY-SPECIFIED
:DEGREES
1360
root -1.43846 15.2437 9.49135 18.4499 18.689 2.55572
lowerback 3.36229 1.34243 0.231754
upperback -3.86868 1.75951 -1.20903
thorax -5.85223 0.837468 -1.53321
lowerneck -15.0173 -1.58528 5.37997
upperneck 16.4362 -2.68608 -3.74094
head 7.39509 -1.29567 -2.39532
rclavicle 4.4329e-014 2.18663e-015
rhumerus -17.5336 37.7614 -82.8539
rradius 64.7009
rwrist -13.6807
rhand -15.2031 -1.9657
rfingers 7.12502
rthumb 10.9689 -31.6591
lclavicle 4.4329e-014 2.18663e-015
lhumerus -49.004 -38.6263 97.5747
lradius 108.884
lwrist 2.34614
lhand -19.0534 6.49453
lfingers 7.12502
lthumb 7.25358 36.3502
rfemur -42.37 -10.8357 9.11114
rtibia 41.425
rfoot -10.4893 -10.1718
rtoes -9.52883
lfemur -6.07185 -23.0076 -2.63883
ltibia 1.27222e-014
lfoot -9.95123 24.4198
ltoes -12.8122
1361
root -1.33659 15.2764 9.43403 18.1825 18.3505 2.35469
lowerback 3.26146 1.26139 0.252083
upperback -3.92524 1.65794 -1.09682
thorax -5.85922 0.788701 -1.41795
lowerneck -14.9656 -1.39929 5.61019
upperneck 16.8319 -2.46608 -3.80458
head 7.52305 -1.17593 -2.43856
rclavicle -8.70677e-014 9.34288e-015
rhumerus -18.6978 37.9983 -83.2268
rradius 65.7588
rwrist -13.9214
rhand -14.9242 -2.26495
rfingers 7.12502
rthumb 11.2378 -31.9439
lclavicle -8.70677e-014 9.34288e-015
lhumerus -48.5288 -38.7148 97.2106
lradius 108.567
lwrist 2.35699
lhand -19.0075 6.71231
lfingers 7.12502
lthumb 7.29793 36.5665
rfemur -41.5331 -10.169 8.60005
rtibia 39.9661
rfoot -9.50909 -10.4107
rtoes -9.69226
lfemur -5.81476 -22.7102 -3.10223
ltibia 1.90833e-014
lfoot -9.83936 24.2075
ltoes -12.7984
1362
root -1.23143 15.3099 9.37352 17.9368 17.9692 2.15622
lowerback 3.1616 1.18337 0.277643
upperback -3.98262 1.5608 -0.982198
thorax -5.86712 0.741976 -1.30372
lowerneck -14.9034 -1.20892 5.84614
upperneck 17.1994 -2.23881 -3.87681
head 7.64122 -1.05329 -2.48407
rclavicle 5.1684e-014 1.43125e-014
rhumerus -19.8265 38.2011 -83.5759
rradius 66.7284
rwrist -14.0321
rhand -14.6651 -2.52507
rfingers 7.12502
rthumb 11.4877 -32.1903
lclavicle 5.1684e-014 1.43125e-014
lhumerus -48.0656 -38.763 96.8692
lradius 108.214
lwrist 2.29719
lhand -18.8805 6.95261
lfingers 7.12502
lthumb 7.42053 36.8025
rfemur -40.7116 -9.4304 8.0586
rtibia 38.444
rfoot -8.4421 -10.7
rtoes -9.90816
lfemur -5.57347 -22.3656 -3.57805
ltibia -1.59028e-014
lfoot -9.74432 23.9682
ltoes -12.8069
1363
root -1.1227 15.3444 9.31026 17.7161 17.5462 1.96947
lowerback 3.06214 1.1068 0.307208
upperback -4.05 1.46562 -0.870999
thorax -5.88527 0.695921 -1.19583
lowerneck -14.8037 -1.01554 6.09247
upperneck 17.5378 -2.00545 -3.95725
head 7.7444 -0.927862 -2.53224
rclavicle -3.50358e-014 -5.96354e-016
rhumerus -20.9451 38.3494 -83.9248
rradius 67.617
rwrist -14.0478
rhand -14.3756 -2.77192
rfingers 7.12502
rthumb 11.7669 -32.4214
lclavicle -3.50358e-014 -5.96354e-016
lhumerus -47.6363 -38.7709 96.5529
lradius 107.825
lwrist 2.1704
lhand -18.6566 7.21194
lfingers 7.12502
lthumb 7.6366 37.0541
rfemur -39.9109 -8.63522 7.48029
rtibia 36.8707
rfoot -7.28766 -11.0318
rtoes -10.1901
lfemur -5.34865 -21.978 -4.0754
ltibia 0
lfoot -9.6647 23.6983
ltoes -12.8155
1364
root -1.01059 15.3795 9.24432 17.5265 17.0797 1.79553
lowerback 2.95647 1.03812 0.346906
upperback -4.12326 1.38122 -0.76714
thorax -5.90517 0.654604 -1.10221
lowerneck -14.6834 -0.823506 6.34131
upperneck 17.8464 -1.77141 -4.04341
head 7.83504 -0.802618 -2.58184
rclavicle 5.55355e-014 1.39149e-015
rhumerus -22.0475 38.4356 -84.266
rradius 68.418
rwrist -13.9941
rhand -14.0611 -2.9904
rfingers 7.12502
rthumb 12.0702 -32.6223
lclavicle 5.55355e-014 1.39149e-015
lhumerus -47.2242 -38.7626 96.26
lradius 107.385
lwrist 1.98157
lhand -18.3713 7.45494
lfingers 7.12502
lthumb 7.91201 37.2869
rfemur -39.1487 -7.78622 6.86579
rtibia 35.2591
rfoot -6.03707 -11.4109
rtoes -10.5581
lfemur -5.1499 -21.5439 -4.59234
ltibia -9.54166e-015
lfoot -9.58486 23.4021
ltoes -12.8641
1365
root -0.895766 15.4148 9.17603 17.3685 16.5668 1.63877
lowerback 2.84586 0.978586 0.384643
upperback -4.2034 1.30859 -0.669605
thorax -5.92898 0.619053 -1.01513
lowerneck -14.538 -0.631907 6.58824
upperneck 18.1272 -1.53435 -4.13325
head 7.91321 -0.676499 -2.63128
rclavicle -2.01021e-014 9.54166e-015
rhumerus -23.1346 38.4649 -84.5996
rradius 69.1396
rwrist -13.9089
rhand -13.7401 -3.20566
rfingers 7.12502
rthumb 12.3797 -32.8191
lclavicle -2.01021e-014 9.54166e-015
lhumerus -46.8262 -38.7404 95.9885
lradius 106.893
lwrist 1.7638
lhand -18.0456 7.66469
lfingers 7.12502
lthumb 8.22629 37.4845
rfemur -38.4342 -6.88065 6.21038
rtibia 33.6202
rfoot -4.68918 -11.8463
rtoes -10.9798
lfemur -4.9749 -21.0621 -5.13038
ltibia 1.90833e-014
lfoot -9.52776 23.0756
ltoes -12.8877
1366
root -0.77858 15.4501 9.10563 17.2487 16.0131 1.50494
lowerback 2.72715 0.926646 0.417593
upperback -4.29357 1.24536 -0.581401
thorax -5.95832 0.588135 -0.935892
lowerneck -14.3689 -0.440308 6.84033
upperneck 18.3836 -1.29374 -4.23365
head 7.98013 -0.54942 -2.68412
rclavicle 3.85394e-014 2.98177e-015
rhumerus -24.21 38.4415 -84.9338
rradius 69.7784
rwrist -13.8112
rhand -13.4185 -3.40643
rfingers 7.12502
rthumb 12.6897 -33.0009
lclavicle 3.85394e-014 2.98177e-015
lhumerus -46.4503 -38.7141 95.743
lradius 106.348
lwrist 1.5294
lhand -17.7186 7.84085
lfingers 7.12502
lthumb 8.54187 37.6481
rfemur -37.776 -5.92578 5.50759
rtibia 31.9599
rfoot -3.24289 -12.3468
rtoes -11.4236
lfemur -4.83504 -20.5383 -5.69188
ltibia 0
lfoot -9.47302 22.7317
ltoes -12.9068
1367
root -0.659901 15.4847 9.0336 17.1655 15.4197 1.39496
lowerback 2.59834 0.882242 0.436715
upperback -4.38772 1.191 -0.500693
thorax -5.98593 0.562095 -0.857342
lowerneck -14.1923 -0.247615 7.09311
upperneck 18.6198 -1.04869 -4.34143
head 8.04017 -0.421012 -2.73881
rclavicle -8.52289e-015 -1.98785e-015
rhumerus -25.254 38.3671 -85.257
rradius 70.3414
rwrist -13.6935
rhand -13.0664 -3.63245
rfingers 7.12502
rthumb 13.0292 -33.2055
lclavicle -8.52289e-015 -1.98785e-015
lhumerus -46.0854 -38.6851 95.5161
lradius 105.753
lwrist 1.28676
lhand -17.4275 7.9844
lfingers 7.12502
lthumb 8.82285 37.78
rfemur -37.1792 -4.89553 4.74118
rtibia 30.2802
rfoot -1.70302 -12.9465
rtoes -11.8174
lfemur -4.72866 -19.9744 -6.27573
ltibia -9.54166e-015
lfoot -9.42666 22.377
ltoes -12.8861
1368
root -0.540406 15.5183 8.96049 17.1258 14.7741 1.31188
lowerback 2.44596 0.850192 0.42894
upperback -4.48261 1.15125 -0.427423
thorax -6.00081 0.544456 -0.772242
lowerneck -14.0304 -0.0513792 7.34452
upperneck 18.8464 -0.795949 -4.46101
head 8.10111 -0.290343 -2.7966
rclavicle 2.57178e-014 -1.31198e-014
rhumerus -26.261 38.2604 -85.5681
rradius 70.825
rwrist -13.5542
rhand -12.7305 -3.85729
rfingers 7.12502
rthumb 13.353 -33.4094
lclavicle 2.57178e-014 -1.31198e-014
lhumerus -45.7363 -38.6731 95.3187
lradius 105.098
lwrist 1.00072
lhand -17.2267 8.09449
lfingers 7.12502
lthumb 9.01662 37.8818
rfemur -36.6571 -3.76709 3.89128
rtibia 28.5791
rfoot -0.0720455 -13.6658
rtoes -12.1049
lfemur -4.65792 -19.3593 -6.88951
ltibia 2.22639e-014
lfoot -9.38872 22.0244
ltoes -12.8015
